<?xml version="1.0" standalone="no"?>
<!DOCTYPE svg PUBLIC "-//W3C//DTD SVG 20010904//EN"
 "http://www.w3.org/TR/2001/REC-SVG-20010904/DTD/svg10.dtd">
<svg version="1.0" xmlns="http://www.w3.org/2000/svg"
 width="512.000000pt" height="512.000000pt" viewBox="0 0 512.000000 512.000000"
 preserveAspectRatio="xMidYMid meet">
<metadata>
Created by potrace 1.14, written by Peter Selinger 2001-2017
</metadata>
<g transform="translate(0.000000,512.000000) scale(0.100000,-0.100000)"
fill="#000000" stroke="none">
<path d="M1087 4878 c-164 -21 -327 -171 -363 -333 -3 -16 -7 -191 -8 -387
l-2 -358 173 0 173 0 0 331 c0 319 1 333 21 369 12 21 39 48 62 60 l40 23
1511 0 c1433 0 1514 -1 1549 -18 46 -22 87 -78 87 -120 l0 -30 -1430 0 c-1359
0 -1430 -1 -1447 -18 -16 -15 -18 -37 -18 -155 l0 -137 1421 -1 1421 0 54 -27
c33 -16 64 -42 81 -65 29 -42 53 -121 46 -150 -3 -11 -2 -37 1 -58 l6 -39 143
-1 c83 0 146 4 149 10 4 5 6 59 5 120 -3 178 -42 278 -150 386 -65 65 -65 65
-67 125 -4 143 -45 244 -136 337 -58 60 -165 119 -240 134 -46 9 -3009 11
-3082 2z"/>
<path d="M3669 3576 c-2 -2 -23 -6 -46 -9 -263 -36 -511 -224 -623 -470 -217
-480 55 -1030 571 -1152 66 -16 139 -18 684 -19 341 -1 630 2 655 7 53 11 119
54 156 102 53 70 54 79 54 721 0 570 -1 595 -20 647 -24 64 -77 121 -140 151
-44 20 -57 21 -666 23 -342 1 -623 1 -625 -1z m1092 -305 c3 0 6 -235 6 -521
l0 -520 -186 0 c-624 -2 -854 1 -903 11 -92 19 -177 67 -254 144 -130 129
-179 290 -144 476 26 141 140 288 275 355 117 57 140 59 696 58 277 -1 507 -2
510 -3z"/>
<path d="M4015 2924 c-5 -1 -22 -5 -37 -8 -34 -8 -84 -50 -105 -89 -61 -118
24 -257 158 -257 74 0 128 35 160 105 41 88 8 180 -81 229 -26 14 -77 25 -95
20z"/>
<path d="M106 3349 c-20 -3 -45 -14 -57 -25 -52 -47 -49 34 -49 -1531 0 -1428
0 -1459 20 -1490 10 -18 31 -40 46 -50 26 -17 85 -18 1098 -17 589 0 1083 3
1098 7 36 10 73 45 84 82 6 18 9 584 9 1475 -1 1179 -3 1452 -14 1478 -7 17
-29 42 -49 54 l-35 22 -1057 0 c-581 1 -1073 -2 -1094 -5z m1976 -278 c20 -28
19 -611 -1 -635 -12 -15 -94 -16 -917 -16 -781 0 -905 2 -917 15 -22 22 -19
631 3 645 9 6 366 10 917 10 873 0 902 -1 915 -19z m-1379 -991 c11 -16 15
-60 15 -185 1 -226 20 -209 -238 -208 -185 0 -204 2 -217 18 -10 14 -13 62
-13 189 0 144 3 172 17 188 15 16 35 18 219 18 193 0 204 -1 217 -20z m673 12
c25 -16 30 -55 29 -209 -1 -139 -3 -165 -18 -180 -15 -15 -42 -17 -217 -17
-176 0 -202 2 -217 17 -15 15 -18 40 -18 193 0 162 2 177 20 190 15 11 62 14
214 14 108 0 201 -4 207 -8z m696 -9 c16 -14 18 -34 18 -187 0 -94 -4 -177 -8
-184 -15 -22 -64 -28 -245 -26 -155 1 -180 4 -197 19 -18 17 -20 32 -20 188 0
145 3 173 17 189 15 16 35 18 216 18 172 0 203 -2 219 -17z m-1373 -572 c17
-17 19 -36 19 -189 0 -147 -2 -173 -17 -189 -16 -17 -36 -18 -220 -18 -189 0
-204 1 -217 19 -11 15 -14 59 -14 192 0 167 1 173 22 188 18 13 57 16 215 16
176 0 195 -2 212 -19z m687 -2 c16 -18 18 -39 19 -186 0 -142 -2 -169 -16
-187 -16 -20 -26 -21 -218 -21 -177 0 -203 2 -218 18 -15 15 -18 39 -18 175
-1 186 0 197 28 210 13 6 102 11 213 11 181 1 192 0 210 -20z m684 1 c18 -18
20 -33 20 -188 0 -128 -3 -173 -14 -187 -13 -18 -30 -19 -207 -20 -185 -2
-224 3 -241 29 -4 6 -8 86 -8 179 0 223 -19 207 235 207 182 0 196 -1 215 -20z
m-1368 -568 c19 -19 22 -353 3 -379 -12 -16 -32 -18 -212 -20 -157 -1 -203 2
-220 13 -22 14 -23 19 -23 189 0 156 2 177 18 193 17 17 37 19 220 18 151 -1
204 -4 214 -14z m687 -8 c14 -17 16 -46 16 -187 -1 -145 -3 -169 -18 -185 -16
-15 -42 -17 -212 -18 -260 -2 -240 -19 -240 206 0 163 2 173 21 189 19 15 47
17 219 17 187 -1 198 -2 214 -22z m687 2 c11 -15 14 -59 14 -188 0 -151 -2
-170 -19 -187 -17 -17 -36 -18 -220 -17 -188 1 -204 2 -217 20 -19 27 -20 344
-1 368 18 24 25 24 234 24 181 -1 196 -2 209 -20z"/>
<path d="M1317 2737 c3 -127 -11 -112 105 -112 l103 0 5 50 c3 28 3 67 1 88
l-3 37 -107 0 -106 0 2 -63z"/>
<path d="M1699 2798 c-1 -4 -1 -129 0 -153 1 -19 7 -20 99 -19 53 1 100 2 105
3 4 1 7 39 7 86 l0 85 -105 0 c-58 0 -105 -1 -106 -2z"/>
<path d="M4459 1726 c-1 0 -2 -50 -3 -111 -3 -140 -24 -186 -101 -215 -22 -8
-248 -11 -812 -11 l-783 0 -1 -32 c0 -45 0 -236 0 -273 l1 -30 818 1 c630 1
827 4 862 14 150 42 271 148 312 271 11 33 14 90 14 215 l-1 170 -152 1 c-84
1 -153 1 -154 0z"/>
</g>
</svg>
